<?xml version="1.0" encoding="UTF-8"?> <svg xmlns="http://www.w3.org/2000/svg" xmlns:xlink="http://www.w3.org/1999/xlink" width="1275px" height="967px" viewBox="0 0 1275 967" version="1.1"><!-- Generator: Sketch 54.1 (76490) - https://sketchapp.com --><title>1A</title><desc>Created with Sketch.</desc><defs><polygon id="path-1" points="0 0.816 87.1151 0.816 87.1151 176.994 0 176.994"></polygon><polygon id="path-3" points="0 0.478 124.2928 0.478 124.2928 52.3124 0 52.3124"></polygon><polygon id="path-5" points="0 0.478 41.4918 0.478 41.4918 219.9113 0 219.9113"></polygon><polygon id="path-7" points="0 0.6026 98.6213 0.6026 98.6213 78.4646 0 78.4646"></polygon><polygon id="path-9" points="0.0622 0.478 104.1982 0.478 104.1982 42.5743 0.0622 42.5743"></polygon><polygon id="path-11" points="0 0.478 127.9807 0.478 127.9807 141.4079 0 141.4079"></polygon><polygon id="path-13" points="0.1448 0.478 193.3838 0.478 193.3838 116.7609 0.1448 116.7609"></polygon><polygon id="path-15" points="0.864 0.478 139.904 0.478 139.904 135.3178 0.864 135.3178"></polygon><polygon id="path-17" points="0.962 0.478 177.363 0.478 177.363 103.4479 0.962 103.4479"></polygon><polygon id="path-19" points="0 0.1347 105.4308 0.1347 105.4308 149.6837 0 149.6837"></polygon><polygon id="path-21" points="1 0.0677 1.6071 0.0677 1.6071 158.8297 1 158.8297"></polygon><polygon id="path-23" points="0 0.5156 169.1579 0.5156 169.1579 304.0626 0 304.0626"></polygon><polygon id="path-25" points="0.8647 0.478 179.3187 0.478 179.3187 52.3124 0.8647 52.3124"></polygon><polygon id="path-27" points="0.2782 0.478 193.5172 0.478 193.5172 219.9113 0.2782 219.9113"></polygon><polygon id="path-29" points="0.0881 0.478 104.2241 0.478 104.2241 42.5743 0.0881 42.5743"></polygon><polygon id="path-31" points="0.6046 0.478 177.0066 0.478 177.0066 141.4079 0.6046 141.4079"></polygon><polygon id="path-33" points="0.1707 0.478 193.4097 0.478 193.4097 116.7609 0.1707 116.7609"></polygon><polygon id="path-35" points="0.8894 0.478 139.9294 0.478 139.9294 135.3178 0.8894 135.3178"></polygon><polygon id="path-37" points="0.9879 0.478 177.3889 0.478 177.3889 103.4479 0.9879 103.4479"></polygon><polygon id="path-39" points="0.4303 0.3026 85.473 0.3026 85.473 159.0646 0.4303 159.0646"></polygon><polygon id="path-41" points="0 0.5636 305.0669 0.5636 305.0669 182.8796 0 182.8796"></polygon><polygon id="path-43" points="0.5536 0.6095 193.7926 0.6095 193.7926 216 0.5536 216"></polygon><polygon id="path-45" points="0.5553 0.478 176.9573 0.478 176.9573 103.4479 0.5553 103.4479"></polygon><polygon id="path-47" points="0.4081 0.755 175.473 0.755 175.473 120.247 0.4081 120.247"></polygon><polygon id="path-49" points="0.4579 0.478 178.9109 0.478 178.9109 52.3124 0.4579 52.3124"></polygon><polygon id="path-51" points="0.8714 0.478 194.1104 0.478 194.1104 219.9113 0.8714 219.9113"></polygon><polygon id="path-53" points="0.1978 0.478 176.5998 0.478 176.5998 141.4079 0.1978 141.4079"></polygon><polygon id="path-55" points="0.0725 0.1423 108.473 0.1423 108.473 151.4093 0.0725 151.4093"></polygon><polygon id="path-57" points="0.7372 0.9327 195.473 0.9327 195.473 153.4907 0.7372 153.4907"></polygon><polygon id="path-59" points="0.7372 0.963 195.473 0.963 195.473 153.521 0.7372 153.521"></polygon><polygon id="path-61" points="0 0.8564 105.4308 0.8564 105.4308 145 0 145"></polygon><polygon id="path-63" points="0.4411 0.2118 139.4811 0.2118 139.4811 140 0.4411 140"></polygon><polygon id="path-65" points="0 0.2373 169.1579 0.2373 169.1579 242 0 242"></polygon><polygon id="path-67" points="0.8993 0.7648 153.473 0.7648 153.473 153.3218 0.8993 153.3218"></polygon><polygon id="path-69" points="0.811 0.3751 239.818 0.3751 239.818 91 0.811 91"></polygon><polygon id="path-71" points="0.3432 0.6915 239.3502 0.6915 239.3502 113 0.3432 113"></polygon><polygon id="path-73" points="0.9388 0.8347 133.4158 0.8347 133.4158 152 0.9388 152"></polygon><polygon id="path-75" points="0.467 0.2118 139.507 0.2118 139.507 140 0.467 140"></polygon><polygon id="path-77" points="0.9277 0.2697 305.473 0.2697 305.473 152.8277 0.9277 152.8277"></polygon><polygon id="path-79" points="0.4775 0.2081 305.6235 0.2081 305.6235 36 0.4775 36"></polygon><polygon id="path-81" points="0.5325 0.8347 133.0085 0.8347 133.0085 152 0.5325 152"></polygon><polygon id="path-83" points="0.7372 0.6544 195.473 0.6544 195.473 153.2124 0.7372 153.2124"></polygon><polygon id="path-85" points="0.0703 0.2081 305.2153 0.2081 305.2153 36 0.0703 36"></polygon><polygon id="path-87" points="0.4228 0.8369 119.9138 0.8369 119.9138 88 0.4228 88"></polygon></defs><g id="1A" stroke="none" stroke-width="1" fill="none" fill-rule="evenodd"><rect fill="#FFFFFF" x="0" y="0" width="1275" height="967"></rect><g id="Group-3" opacity="0.15280878" transform="translate(1244.000000, 7.522000)" stroke="#00BCBC"><polygon id="Stroke-1" points="27.6522 0.5348 0.2522 27.9388 193.4892 221.1828 193.4912 221.1828 193.4832 27.9538 124.2792 97.1578 27.6572 0.5348"></polygon><polygon id="Stroke-2" points="33.286 369.1012 102.807 299.5752 152.603 349.3712 152.607 210.3392 152.605 210.3392 13.567 349.3802 33.282 369.1012"></polygon></g><g id="Group-267" opacity="0.15280878" transform="translate(-1.000000, -0.478000)"><g id="Group-6" transform="translate(1.000000, 58.000000)"><mask id="mask-2" fill="white"><use xlink:href="#path-1"></use></mask><g id="Clip-5"></g><polygon id="Stroke-4" stroke="#00BCBC" mask="url(#mask-2)" points="-0.9659 88.901 62.1281 88.901 62.1281 176.994 87.1151 176.994 87.1151 0.816"></polygon></g><g id="Group-13" transform="translate(1.000000, 0.000000)"><g id="Group-9"><mask id="mask-4" fill="white"><use xlink:href="#path-3"></use></mask><g id="Clip-8"></g><polygon id="Stroke-7" stroke="#00BCBC" mask="url(#mask-4)" points="4.7968 -67.1796 4.7968 18.4174 -54.1612 18.4174 -54.1612 52.3124 124.2928 52.3124"></polygon></g><g id="Group-12"><mask id="mask-6" fill="white"><use xlink:href="#path-5"></use></mask><g id="Clip-11"></g><polygon id="Stroke-10" stroke="#00BCBC" mask="url(#mask-6)" points="-124.3472 -0.7367 -151.7472 26.6673 41.4898 219.9113 41.4918 219.9113 41.4828 26.6823 -27.7202 95.8863 -124.3432 -0.7367"></polygon></g></g><polygon id="Stroke-14" stroke="#00BCBC" points="363.642 96.9152 336.242 124.3202 529.479 317.5632 529.481 317.5632 529.473 124.3342 460.269 193.5382 363.646 96.9152"></polygon><g id="Group-22" transform="translate(1.000000, 0.000000)"><g id="Group-18" transform="translate(0.000000, 215.000000)"><mask id="mask-8" fill="white"><use xlink:href="#path-7"></use></mask><g id="Clip-17"></g><polygon id="Stroke-16" stroke="#00BCBC" mask="url(#mask-8)" points="20.7533 56.3766 -57.1217 56.3766 -57.1217 78.4606 98.6213 78.4646 20.7533 0.6026"></polygon></g><g id="Group-21" transform="translate(60.000000, 0.000000)"><mask id="mask-10" fill="white"><use xlink:href="#path-9"></use></mask><g id="Clip-20"></g><polygon id="Stroke-19" stroke="#00BCBC" mask="url(#mask-10)" points="52.1322 27.8053 0.0622 27.8053 0.0622 42.5723 104.1982 42.5743 52.1322 -9.4877"></polygon></g></g><polygon id="Stroke-23" stroke="#00BCBC" points="286.9423 31.3243 207.7153 110.5583 150.9663 53.8093 150.9623 212.2523 150.9643 212.2523 309.4153 53.7993 286.9473 31.3243"></polygon><g id="Group-27" transform="translate(1.000000, 0.000000)"><mask id="mask-12" fill="white"><use xlink:href="#path-11"></use></mask><g id="Clip-26"></g><polygon id="Stroke-25" stroke="#00BCBC" mask="url(#mask-12)" points="-21.5733 -61.8451 -48.4203 -34.9931 127.9807 141.4079 127.9807 94.0799 127.9747 -47.9071 60.1707 19.8969 -21.5693 -61.8451"></polygon></g><polygon id="Stroke-28" stroke="#00BCBC" points="101.2343 86.8527 73.8343 114.2577 267.0713 307.5007 267.0733 307.5007 267.0653 114.2717 197.8613 183.4757 101.2383 86.8527"></polygon><g id="Group-39" transform="translate(81.000000, 0.000000)"><g id="Group-32"><mask id="mask-14" fill="white"><use xlink:href="#path-13"></use></mask><g id="Clip-31"></g><polygon id="Stroke-30" stroke="#00BCBC" mask="url(#mask-14)" points="27.5448 -103.8871 0.1448 -76.4831 193.3818 116.7609 193.3838 116.7609 193.3758 -76.4681 124.1718 -7.2641 27.5488 -103.8871"></polygon></g><g id="Group-35" transform="translate(123.000000, 0.000000)"><mask id="mask-16" fill="white"><use xlink:href="#path-15"></use></mask><g id="Clip-34"></g><polygon id="Stroke-33" stroke="#00BCBC" mask="url(#mask-16)" points="120.185 -23.4442 50.664 46.0828 0.868 -3.7142 0.864 135.3178 0.866 135.3178 139.904 -3.7222 120.189 -23.4442"></polygon></g><g id="Group-38" transform="translate(159.000000, 0.000000)"><mask id="mask-18" fill="white"><use xlink:href="#path-17"></use></mask><g id="Clip-37"></g><polygon id="Stroke-36" stroke="#00BCBC" mask="url(#mask-18)" points="27.809 -99.8051 0.962 -72.9531 177.363 103.4479 177.363 56.1199 177.357 -85.8681 109.553 -18.0641 27.813 -99.8051"></polygon></g></g><polygon id="Stroke-40" stroke="#00BCBC" points="394.1469 281.4821 331.0529 281.4821 331.0529 193.3891 306.0659 193.3891 306.0659 369.5671"></polygon><polygon id="Stroke-42" stroke="#00BCBC" points="388.3842 474.089 388.3842 388.492 447.3422 388.492 447.3422 354.597 268.8882 354.597"></polygon><polygon id="Stroke-44" stroke="#00BCBC" points="210.9286 325.5973 158.8636 273.5343 158.8636 310.8303 106.7906 310.8283 106.7906 325.5973"></polygon><polygon id="Stroke-46" stroke="#00BCBC" points="110.1083 202.4371 162.1733 254.5001 162.1733 217.2041 214.2463 217.2061 214.2463 202.4371"></polygon><polygon id="Stroke-48" stroke="#00BCBC" points="305.4877 71.1134 357.5527 123.1764 357.5527 85.8804 409.6257 85.8824 409.6257 71.1134"></polygon><polygon id="Stroke-50" stroke="#00BCBC" points="277.9682 668.4406 411.5802 802.0476 411.5802 706.3356 545.2102 706.3396 545.2102 668.4406"></polygon><polygon id="Stroke-52" stroke="#00BCBC" points="108.1005 409.5529 181.0235 336.6229 233.2585 388.8569 233.2625 243.0189 233.2605 243.0189 87.4155 388.8659 108.0965 409.5529"></polygon><polygon id="Stroke-54" stroke="#00BCBC" points="707.4877 773.922 734.3347 747.07 557.9337 570.669 557.9337 617.997 557.9397 759.984 625.7437 692.181 707.4837 773.922"></polygon><polygon id="Stroke-56" stroke="#00BCBC" points="171.4613 731.2413 198.3093 704.3893 21.9073 527.9883 21.9073 575.3163 21.9143 717.3033 89.7183 649.5003 171.4573 731.2413"></polygon><polygon id="Stroke-58" stroke="#00BCBC" points="146.5058 256.8868 79.9358 256.8868 79.9358 163.9398 53.5718 163.9398 53.5718 349.8248"></polygon><g id="Group-66" transform="translate(0.000000, 209.000000)"><g id="Group-62" transform="translate(1.000000, 164.000000)"><mask id="mask-20" fill="white"><use xlink:href="#path-19"></use></mask><g id="Clip-61"></g><polygon id="Stroke-60" stroke="#00BCBC" mask="url(#mask-20)" points="86.8598 149.6837 105.4308 131.1097 -25.5402 0.1347 -25.5412 0.1347 -25.5362 131.0997 21.3688 84.1957 86.8568 149.6837"></polygon></g><g id="Group-65"><mask id="mask-22" fill="white"><use xlink:href="#path-21"></use></mask><g id="Clip-64"></g><polygon id="Stroke-63" stroke="#00BCBC" mask="url(#mask-22)" points="-117.7139 158.8297 -48.1929 89.3037 1.6031 139.0997 1.6071 0.0677 1.6051 0.0677 -137.4329 139.1087 -117.7179 158.8297"></polygon></g></g><polygon id="Stroke-67" stroke="#00BCBC" points="222.1601 536.2521 291.6811 466.7251 341.4771 516.5221 341.4811 377.4901 341.4791 377.4901 202.4411 516.5301 222.1561 536.2521"></polygon><polygon id="Stroke-69" stroke="#00BCBC" points="150.1171 675.8693 219.6371 606.3423 269.4341 656.1393 269.4381 517.1063 269.4361 517.1063 130.3981 656.1473 150.1131 675.8693"></polygon><polygon id="Stroke-71" stroke="#00BCBC" points="875.2797 658.4445 944.7997 588.9175 994.5967 638.7145 994.6007 499.6815 994.5987 499.6815 855.5607 638.7225 875.2757 658.4445"></polygon><polygon id="Stroke-73" stroke="#00BCBC" points="341.1313 874.8605 410.6513 805.3345 460.4483 855.1315 460.4523 716.0985 460.4503 716.0985 321.4123 855.1385 341.1273 874.8605"></polygon><g id="Group-77" transform="translate(1.000000, 275.000000)"><mask id="mask-24" fill="white"><use xlink:href="#path-23"></use></mask><g id="Clip-76"></g><polygon id="Stroke-75" stroke="#00BCBC" mask="url(#mask-24)" points="129.0629 304.0626 169.1579 263.9616 -94.2881 0.5156 -94.2881 71.1976 -94.2781 283.2486 6.9829 181.9866 129.0569 304.0626"></polygon></g><polygon id="Stroke-78" stroke="#00BCBC" points="15.9037 335.9327 168.4667 488.4907 168.4667 379.2017 321.0497 379.2077 321.0497 335.9327"></polygon><polygon id="Stroke-80" stroke="#00BCBC" points="121.811 426.6525 241.307 546.1445 241.307 460.5445 360.818 460.5485 360.818 426.6525"></polygon><polygon id="Stroke-82" stroke="#00BCBC" points="288.4194 284.9698 410.9644 162.4198 323.1764 162.4198 323.1814 39.8548 288.4194 39.8548"></polygon><polygon id="Stroke-84" stroke="#00BCBC" points="481.0629 146.901 544.1569 146.901 544.1569 234.994 569.1439 234.994 569.1439 58.816"></polygon><g id="Group-88" transform="translate(422.000000, 0.000000)"><mask id="mask-26" fill="white"><use xlink:href="#path-25"></use></mask><g id="Clip-87"></g><polygon id="Stroke-86" stroke="#00BCBC" mask="url(#mask-26)" points="59.8227 -67.1796 59.8227 18.4174 0.8647 18.4174 0.8647 52.3124 179.3187 52.3124"></polygon></g><g id="Group-91" transform="translate(325.000000, 0.000000)"><mask id="mask-28" fill="white"><use xlink:href="#path-27"></use></mask><g id="Clip-90"></g><polygon id="Stroke-89" stroke="#00BCBC" mask="url(#mask-28)" points="27.6782 -0.7367 0.2782 26.6673 193.5152 219.9113 193.5172 219.9113 193.5092 26.6823 124.3052 95.8863 27.6822 -0.7367"></polygon></g><polygon id="Stroke-92" stroke="#00BCBC" points="636.9946 510.1779 609.5946 537.5829 802.8316 730.8259 802.8336 730.8259 802.8256 537.5979 733.6216 606.8009 636.9986 510.1779"></polygon><polygon id="Stroke-94" stroke="#00BCBC" points="833.664 85.9088 806.264 113.3128 999.501 306.5568 999.503 306.5568 999.495 113.3278 930.291 182.5318 833.668 85.9088"></polygon><g id="Group-98" transform="translate(537.000000, 0.000000)"><mask id="mask-30" fill="white"><use xlink:href="#path-29"></use></mask><g id="Clip-97"></g><polygon id="Stroke-96" stroke="#00BCBC" mask="url(#mask-30)" points="52.1581 27.8053 0.0881 27.8053 0.0881 42.5723 104.2241 42.5743 52.1581 -9.4877"></polygon></g><polygon id="Stroke-99" stroke="#00BCBC" points="762.9682 31.3243 683.7412 110.5583 626.9922 53.8093 626.9872 212.2523 626.9892 212.2523 785.4402 53.7993 762.9732 31.3243"></polygon><g id="Group-103" transform="translate(428.000000, 0.000000)"><mask id="mask-32" fill="white"><use xlink:href="#path-31"></use></mask><g id="Clip-102"></g><polygon id="Stroke-101" stroke="#00BCBC" mask="url(#mask-32)" points="27.4526 -61.8451 0.6046 -34.9931 177.0066 141.4079 177.0066 94.0799 176.9996 -47.9071 109.1956 19.8969 27.4566 -61.8451"></polygon></g><polygon id="Stroke-104" stroke="#00BCBC" points="577.2602 86.8527 549.8602 114.2577 743.0972 307.5007 743.0992 307.5007 743.0902 114.2717 673.8872 183.4757 577.2642 86.8527"></polygon><g id="Group-108" transform="translate(557.000000, 0.000000)"><mask id="mask-34" fill="white"><use xlink:href="#path-33"></use></mask><g id="Clip-107"></g><polygon id="Stroke-106" stroke="#00BCBC" mask="url(#mask-34)" points="27.5707 -103.8871 0.1707 -76.4831 193.4067 116.7609 193.4097 116.7609 193.4007 -76.4681 124.1977 -7.2641 27.5747 -103.8871"></polygon></g><polygon id="Stroke-109" stroke="#00BCBC" points="355.0932 523.7189 327.6932 551.1229 520.9292 744.3669 520.9322 744.3669 520.9232 551.1389 451.7202 620.3419 355.0972 523.7189"></polygon><g id="Group-117" transform="translate(680.000000, 0.000000)"><g id="Group-113"><mask id="mask-36" fill="white"><use xlink:href="#path-35"></use></mask><g id="Clip-112"></g><polygon id="Stroke-111" stroke="#00BCBC" mask="url(#mask-36)" points="120.2104 -23.4442 50.6904 46.0828 0.8934 -3.7142 0.8894 135.3178 0.8914 135.3178 139.9294 -3.7222 120.2144 -23.4442"></polygon></g><g id="Group-116" transform="translate(36.000000, 0.000000)"><mask id="mask-38" fill="white"><use xlink:href="#path-37"></use></mask><g id="Clip-115"></g><polygon id="Stroke-114" stroke="#00BCBC" mask="url(#mask-38)" points="27.8349 -99.8051 0.9879 -72.9531 177.3889 103.4479 177.3889 56.1199 177.3829 -85.8681 109.5789 -18.0641 27.8389 -99.8051"></polygon></g></g><polygon id="Stroke-118" stroke="#00BCBC" points="870.1728 281.4821 807.0788 281.4821 807.0788 193.3891 782.0918 193.3891 782.0918 369.5671"></polygon><polygon id="Stroke-120" stroke="#00BCBC" points="995.8886 432.9005 1023.2886 405.4965 830.0516 212.2525 830.0496 212.2525 830.0576 405.4815 899.2616 336.2775 995.8836 432.9005"></polygon><polygon id="Stroke-122" stroke="#00BCBC" points="686.9545 325.5973 634.8885 273.5343 634.8885 310.8303 582.8165 310.8283 582.8165 325.5973"></polygon><polygon id="Stroke-124" stroke="#00BCBC" points="586.1337 202.4371 638.1997 254.5001 638.1997 217.2041 690.2717 217.2061 690.2717 202.4371"></polygon><polygon id="Stroke-126" stroke="#00BCBC" points="781.5131 71.1134 833.5791 123.1764 833.5791 85.8804 885.6511 85.8824 885.6511 71.1134"></polygon><polygon id="Stroke-128" stroke="#00BCBC" points="440.4667 188.776 320.8527 308.395 406.5417 308.395 406.5367 428.027 440.4667 428.027"></polygon><polygon id="Stroke-130" stroke="#00BCBC" points="584.1264 409.5529 657.0494 336.6229 709.2844 388.8569 709.2884 243.0189 709.2864 243.0189 563.4414 388.8659 584.1224 409.5529"></polygon><polygon id="Stroke-132" stroke="#00BCBC" points="806.4384 455.3497 833.2854 428.4977 656.8844 252.0967 656.8844 299.4247 656.8904 441.4117 724.6944 373.6087 806.4344 455.3497"></polygon><polygon id="Stroke-134" stroke="#00BCBC" points="748.308 770.7482 775.155 743.8962 598.754 567.4952 598.754 614.8232 598.76 756.8112 666.564 689.0072 748.304 770.7482"></polygon><polygon id="Stroke-136" stroke="#00BCBC" points="628.5351 256.8868 561.9651 256.8868 561.9651 163.9398 535.6011 163.9398 535.6011 349.8248"></polygon><polygon id="Stroke-138" stroke="#00BCBC" points="538.6308 517.379 557.4158 498.592 424.9408 366.112 424.9388 366.112 424.9448 498.581 472.3878 451.139 538.6288 517.379"></polygon><g id="Group-142" transform="translate(1191.000000, 443.000000)"><mask id="mask-40" fill="white"><use xlink:href="#path-39"></use></mask><g id="Clip-141"></g><polygon id="Stroke-140" stroke="#00BCBC" mask="url(#mask-40)" points="20.1493 159.0646 89.6703 89.5386 139.4663 139.3356 139.4703 0.3026 139.4683 0.3026 0.4303 139.3436 20.1453 159.0646"></polygon></g><polygon id="Stroke-143" stroke="#00BCBC" points="462.1445 335.9327 614.7075 488.4907 614.7075 379.2017 767.2905 379.2077 767.2905 335.9327"></polygon><polygon id="Stroke-145" stroke="#00BCBC" points="288.4775 481.4855 441.0405 634.0435 441.0405 524.7555 593.6235 524.7605 593.6235 481.4855"></polygon><g id="Group-149" transform="translate(1.000000, 631.000000)"><mask id="mask-42" fill="white"><use xlink:href="#path-41"></use></mask><g id="Clip-148"></g><polygon id="Stroke-147" stroke="#00BCBC" mask="url(#mask-42)" points="-59.6031 0.5636 122.7209 182.8796 122.7209 52.2736 305.0669 52.2806 305.0669 0.5636"></polygon></g><polygon id="Stroke-150" stroke="#00BCBC" points="983.2353 96.9152 955.8353 124.3202 1149.0723 317.5632 1149.0743 317.5632 1149.0653 124.3342 1079.8623 193.5382 983.2393 96.9152"></polygon><g id="Group-154" transform="translate(773.000000, 751.000000)"><mask id="mask-44" fill="white"><use xlink:href="#path-43"></use></mask><g id="Clip-153"></g><polygon id="Stroke-152" stroke="#00BCBC" mask="url(#mask-44)" points="27.9536 0.6095 0.5536 28.0135 193.7906 221.2575 193.7926 221.2575 193.7846 28.0285 124.5806 97.2325 27.9576 0.6095"></polygon></g><g id="Group-157" transform="translate(860.000000, 0.000000)"><mask id="mask-46" fill="white"><use xlink:href="#path-45"></use></mask><g id="Clip-156"></g><polygon id="Stroke-155" stroke="#00BCBC" mask="url(#mask-46)" points="27.4023 -99.8051 0.5553 -72.9531 176.9573 103.4479 176.9573 56.1199 176.9503 -85.8681 109.1463 -18.0641 27.4063 -99.8051"></polygon></g><polygon id="Stroke-158" stroke="#00BCBC" points="1012.3329 278.6666 951.2559 278.6666 951.2559 193.3896 927.0679 193.3896 927.0679 363.9356"></polygon><polygon id="Stroke-160" stroke="#00BCBC" points="925.0805 71.1134 977.1465 123.1764 977.1465 85.8804 1029.2185 85.8824 1029.2185 71.1134"></polygon><g id="Group-164" transform="translate(1101.000000, 247.000000)"><mask id="mask-48" fill="white"><use xlink:href="#path-47"></use></mask><g id="Clip-163"></g><polygon id="Stroke-162" stroke="#00BCBC" mask="url(#mask-48)" points="0.4081 0.755 119.9041 120.247 119.9041 34.646 239.4151 34.651 239.4151 0.755"></polygon></g><polygon id="Stroke-165" stroke="#00BCBC" points="908.0121 284.9698 1030.5571 162.4198 942.7691 162.4198 942.7741 39.8548 908.0121 39.8548"></polygon><polygon id="Stroke-167" stroke="#00BCBC" points="464.3227 621.6534 586.8677 499.1034 499.0797 499.1034 499.0847 376.5384 464.3227 376.5384"></polygon><g id="Group-171" transform="translate(1042.000000, 0.000000)"><mask id="mask-50" fill="white"><use xlink:href="#path-49"></use></mask><g id="Clip-170"></g><polygon id="Stroke-169" stroke="#00BCBC" mask="url(#mask-50)" points="59.4159 -67.1796 59.4159 18.4174 0.4579 18.4174 0.4579 52.3124 178.9109 52.3124"></polygon></g><g id="Group-174" transform="translate(944.000000, 0.000000)"><mask id="mask-52" fill="white"><use xlink:href="#path-51"></use></mask><g id="Clip-173"></g><polygon id="Stroke-172" stroke="#00BCBC" mask="url(#mask-52)" points="28.2714 -0.7367 0.8714 26.6673 194.1084 219.9113 194.1104 219.9113 194.1014 26.6823 124.8984 95.8863 28.2754 -0.7367"></polygon></g><g id="Group-177" transform="translate(1048.000000, 0.000000)"><mask id="mask-54" fill="white"><use xlink:href="#path-53"></use></mask><g id="Clip-176"></g><polygon id="Stroke-175" stroke="#00BCBC" mask="url(#mask-54)" points="27.0458 -61.8451 0.1978 -34.9931 176.5998 141.4079 176.5998 94.0799 176.5938 -47.9071 108.7888 19.8969 27.0498 -61.8451"></polygon></g><polygon id="Stroke-178" stroke="#00BCBC" points="1060.0604 188.776 940.4464 308.395 1026.1344 308.395 1026.1294 428.027 1060.0604 428.027"></polygon><polygon id="Stroke-180" stroke="#00BCBC" points="1158.2245 517.379 1177.0085 498.592 1044.5335 366.112 1044.5325 366.112 1044.5375 498.581 1091.9805 451.139 1158.2215 517.379"></polygon><g id="Group-188" transform="translate(1081.000000, 113.000000)"><g id="Group-184" transform="translate(87.000000, 0.000000)"><mask id="mask-56" fill="white"><use xlink:href="#path-55"></use></mask><g id="Clip-183"></g><polygon id="Stroke-182" stroke="#00BCBC" mask="url(#mask-56)" points="113.7645 151.4093 132.5485 132.6223 0.0735 0.1423 0.0725 0.1423 0.0775 132.6123 47.5215 85.1693 113.7615 151.4093"></polygon></g><g id="Group-187" transform="translate(0.000000, 222.000000)"><mask id="mask-58" fill="white"><use xlink:href="#path-57"></use></mask><g id="Clip-186"></g><polygon id="Stroke-185" stroke="#00BCBC" mask="url(#mask-58)" points="0.7372 0.9327 153.3002 153.4907 153.3002 44.2017 305.8832 44.2077 305.8832 0.9327"></polygon></g></g><polygon id="Stroke-189" stroke="#00BCBC" points="798.184 668.088 950.747 820.646 950.747 711.358 1103.33 711.363 1103.33 668.088"></polygon><g id="Group-193" transform="translate(1081.000000, 654.000000)"><mask id="mask-60" fill="white"><use xlink:href="#path-59"></use></mask><g id="Clip-192"></g><polygon id="Stroke-191" stroke="#00BCBC" mask="url(#mask-60)" points="0.7372 0.963 153.3002 153.521 153.3002 44.232 305.8832 44.238 305.8832 0.963"></polygon></g><polygon id="Stroke-194" stroke="#00BCBC" points="908.0703 481.4855 1060.6333 634.0435 1060.6333 524.7555 1213.2153 524.7605 1213.2153 481.4855"></polygon><polygon id="Stroke-196" stroke="#00BCBC" points="983.623 743.7189 831.06 591.1609 831.06 700.4489 678.477 700.4439 678.477 743.7189"></polygon><polygon id="Stroke-198" stroke="#00BCBC" points="835.2875 373.5875 936.1155 488.2405 936.1155 406.1055 1036.9565 406.1105 1036.9565 373.5875"></polygon><polygon id="Stroke-200" stroke="#00BCBC" points="634.8857 488.8185 735.7137 603.4705 735.7137 521.3365 836.5547 521.3405 836.5547 488.8185"></polygon><polygon id="Stroke-202" stroke="#00BCBC" points="570.4228 669.1222 689.9138 549.6262 604.3138 549.6262 604.3188 430.1142 570.4228 430.1142"></polygon><polygon id="Stroke-204" stroke="#00BCBC" points="291.3618 772.7325 410.8528 653.2355 325.2528 653.2355 325.2578 533.7245 291.3618 533.7245"></polygon><polygon id="Stroke-206" stroke="#00BCBC" points="1071.9384 743.8888 1191.4304 624.3928 1105.8304 624.3928 1105.8344 504.8818 1071.9384 504.8818"></polygon><polygon id="Stroke-208" stroke="#00BCBC" points="209.6928 893.2111 329.1838 773.7151 243.5838 773.7151 243.5888 654.2041 209.6928 654.2041"></polygon><g id="Group-219" transform="translate(1.000000, 725.000000)"><g id="Group-212" transform="translate(0.000000, 97.000000)"><mask id="mask-62" fill="white"><use xlink:href="#path-61"></use></mask><g id="Clip-211"></g><polygon id="Stroke-210" stroke="#00BCBC" mask="url(#mask-62)" points="86.8598 150.4064 105.4308 131.8324 -25.5402 0.8564 -25.5412 0.8564 -25.5362 131.8224 21.3688 84.9184 86.8568 150.4064"></polygon></g><g id="Group-215" transform="translate(201.000000, 102.000000)"><mask id="mask-64" fill="white"><use xlink:href="#path-63"></use></mask><g id="Clip-214"></g><polygon id="Stroke-213" stroke="#00BCBC" mask="url(#mask-64)" points="20.1601 158.9738 89.6811 89.4478 139.4771 139.2448 139.4811 0.2118 139.4791 0.2118 0.4411 139.2518 20.1561 158.9738"></polygon></g><g id="Group-218"><mask id="mask-66" fill="white"><use xlink:href="#path-65"></use></mask><g id="Clip-217"></g><polygon id="Stroke-216" stroke="#00BCBC" mask="url(#mask-66)" points="129.0629 303.7853 169.1579 263.6833 -94.2881 0.2373 -94.2881 70.9193 -94.2781 282.9713 6.9829 181.7093 129.0569 303.7853"></polygon></g></g><polygon id="Stroke-220" stroke="#00BCBC" points="15.9037 785.6544 168.4667 938.2124 168.4667 828.9244 321.0497 828.9294 321.0497 785.6544"></polygon><g id="Group-228" transform="translate(121.000000, 557.000000)"><g id="Group-224" transform="translate(1002.000000, 0.000000)"><mask id="mask-68" fill="white"><use xlink:href="#path-67"></use></mask><g id="Clip-223"></g><polygon id="Stroke-222" stroke="#00BCBC" mask="url(#mask-68)" points="0.8993 0.7648 153.4623 153.3218 153.4623 44.0338 306.0453 44.0398 306.0453 0.7648"></polygon></g><g id="Group-227" transform="translate(0.000000, 319.000000)"><mask id="mask-70" fill="white"><use xlink:href="#path-69"></use></mask><g id="Clip-226"></g><polygon id="Stroke-225" stroke="#00BCBC" mask="url(#mask-70)" points="0.811 0.3751 120.307 119.8661 120.307 34.2661 239.818 34.2711 239.818 0.3751"></polygon></g></g><g id="Group-231" transform="translate(631.000000, 854.000000)"><mask id="mask-72" fill="white"><use xlink:href="#path-71"></use></mask><g id="Clip-230"></g><polygon id="Stroke-229" stroke="#00BCBC" mask="url(#mask-72)" points="0.3432 0.6915 119.8392 120.1825 119.8392 34.5825 239.3502 34.5875 239.3502 0.6915"></polygon></g><polygon id="Stroke-232" stroke="#00BCBC" points="427.2285 838.3527 546.7245 957.8437 546.7245 872.2437 666.2355 872.2487 666.2355 838.3527"></polygon><g id="Group-236" transform="translate(424.000000, 815.000000)"><mask id="mask-74" fill="white"><use xlink:href="#path-73"></use></mask><g id="Clip-235"></g><polygon id="Stroke-234" stroke="#00BCBC" mask="url(#mask-74)" points="114.6308 152.1017 133.4158 133.3147 0.9408 0.8347 0.9388 0.8347 0.9448 133.3037 48.3878 85.8617 114.6288 152.1017"></polygon></g><g id="Group-239" transform="translate(678.000000, 827.000000)"><mask id="mask-76" fill="white"><use xlink:href="#path-75"></use></mask><g id="Clip-238"></g><polygon id="Stroke-237" stroke="#00BCBC" mask="url(#mask-76)" points="20.186 158.9738 89.707 89.4478 139.503 139.2448 139.507 0.2118 139.505 0.2118 0.467 139.2518 20.182 158.9738"></polygon></g><polygon id="Stroke-240" stroke="#00BCBC" points="462.1445 785.6544 614.7075 938.2124 614.7075 828.9244 767.2905 828.9294 767.2905 785.6544"></polygon><g id="Group-244" transform="translate(971.000000, 761.000000)"><mask id="mask-78" fill="white"><use xlink:href="#path-77"></use></mask><g id="Clip-243"></g><polygon id="Stroke-242" stroke="#00BCBC" mask="url(#mask-78)" points="0.9277 0.2697 153.4907 152.8277 153.4907 43.5397 306.0737 43.5447 306.0737 0.2697"></polygon></g><g id="Group-247" transform="translate(288.000000, 931.000000)"><mask id="mask-80" fill="white"><use xlink:href="#path-79"></use></mask><g id="Clip-246"></g><polygon id="Stroke-245" stroke="#00BCBC" mask="url(#mask-80)" points="0.4775 0.2081 153.0405 152.7661 153.0405 43.4771 305.6235 43.4831 305.6235 0.2081"></polygon></g><g id="Group-250" transform="translate(1044.000000, 815.000000)"><mask id="mask-82" fill="white"><use xlink:href="#path-81"></use></mask><g id="Clip-249"></g><polygon id="Stroke-248" stroke="#00BCBC" mask="url(#mask-82)" points="114.2245 152.1017 133.0085 133.3147 0.5335 0.8347 0.5325 0.8347 0.5375 133.3037 47.9805 85.8617 114.2215 152.1017"></polygon></g><polygon id="Stroke-251" stroke="#00BCBC" points="935.0756 661.3292 966.1396 630.2602 747.0616 411.1742 747.0586 411.1742 747.0686 630.2432 825.5266 551.7852 935.0706 661.3292"></polygon><g id="Group-259" transform="translate(908.000000, 785.000000)"><g id="Group-255" transform="translate(173.000000, 0.000000)"><mask id="mask-84" fill="white"><use xlink:href="#path-83"></use></mask><g id="Clip-254"></g><polygon id="Stroke-253" stroke="#00BCBC" mask="url(#mask-84)" points="0.7372 0.6544 153.3002 153.2124 153.3002 43.9244 305.8832 43.9294 305.8832 0.6544"></polygon></g><g id="Group-258" transform="translate(0.000000, 146.000000)"><mask id="mask-86" fill="white"><use xlink:href="#path-85"></use></mask><g id="Clip-257"></g><polygon id="Stroke-256" stroke="#00BCBC" mask="url(#mask-86)" points="0.0703 0.2081 152.6333 152.7661 152.6333 43.4771 305.2153 43.4831 305.2153 0.2081"></polygon></g></g><polygon id="Stroke-260" stroke="#00BCBC" points="835.2875 823.3097 936.1155 937.9617 936.1155 855.8287 1036.9565 855.8327 1036.9565 823.3097"></polygon><g id="Group-264" transform="translate(570.000000, 879.000000)"><mask id="mask-88" fill="white"><use xlink:href="#path-87"></use></mask><g id="Clip-263"></g><polygon id="Stroke-262" stroke="#00BCBC" mask="url(#mask-88)" points="0.4228 239.8439 119.9138 120.3479 34.3138 120.3479 34.3188 0.8369 0.4228 0.8369"></polygon></g><polygon id="Stroke-265" stroke="#00BCBC" points="764.4448 284.9698 886.9898 162.4198 799.2018 162.4198 799.2068 39.8548 764.4448 39.8548"></polygon></g></g></svg> 